<svg xmlns="http://www.w3.org/2000/svg" xmlns:xlink="http://www.w3.org/1999/xlink" version="1.1" x="0px" y="0px"
	viewBox="0 0 96 120" style="enable-background:new 0 0 96 96;" xml:space="preserve">
	<style type="text/css">
		.st0 {
			fill-rule: evenodd;
			clip-rule: evenodd;
			fill: #000000;

			@media (prefers-color-scheme:dark) {
				fill: #FFFFFF;
			}
		}

		text {
			fill: #000000;

			@media (prefers-color-scheme:dark) {
				fill: #FFFFFF;
			}
	</style>
	<path class="st0"
		d="M48.1157303,46.8313179c0,0.6215172-0.502182,1.1273041-1.1249199,1.1273041  c-0.6197815,0-1.1236763-0.4979439-1.1236763-1.1273041c0-0.6203537,0.5044861-1.124897,1.1236763-1.124897  C47.6135483,45.7064209,48.1157303,46.2109642,48.1157303,46.8313179L48.1157303,46.8313179z M40.1551514,22.8786755  c1.7346458-1.9567623,4.2266693-3.0781727,6.835659-3.0781727c5.0384483,0,9.1363182,4.097929,9.1363182,9.135191  c0,3.8957844-2.4719162,7.3673344-6.1527214,8.6376095c-1.1473694,0.3946686-1.8586769,1.3943024-1.8586769,2.6067009V42.24897  c0,0.622757-0.502182,1.1249199-1.1249199,1.1249199c-0.6191902,0-1.1236763-0.5021629-1.1236763-1.1249199v-2.0689659  c0-2.1682892,1.3234177-4.0246391,3.3735161-4.7311974c2.7744331-0.9595146,4.6378212-3.5768242,4.6378212-6.513113  c0-3.7965736-3.0887184-6.8864765-6.887661-6.8864765c-1.9673691,0-3.8449669,0.8471985-5.1518478,2.3194828  c-0.4135361,0.4667377-1.1237373,0.5081139-1.5880928,0.0969028C39.7852974,24.0520477,39.7439423,23.34305,40.1551514,22.8786755  L40.1551514,22.8786755z M34.655899,10.0096502c-0.3096123-0.5376425-0.1264687-1.2253323,0.411171-1.5349464  c0.538826-0.3130865,1.2265167-0.127615,1.536129,0.4112291l2.5972061,4.4960909  c0.4366379,0.7556753-0.1214561,1.6861391-0.97369,1.6861391c-0.3887215,0-0.7656517-0.2008839-0.9748154-0.5624599  L34.655899,10.0096502L34.655899,10.0096502z M25.6011295,17.9407005c0.3096142-0.5388241,0.9973049-0.7219677,1.5361309-0.4112282  l4.4959946,2.596077c0.9958534,0.5741348,0.5790749,2.0972919-0.5624027,2.0972919  c-0.1914024,0-0.3840084-0.0484505-0.562458-0.1511917l-4.4960537-2.5960579  C25.474659,19.1660347,25.2915154,18.478344,25.6011295,17.9407005L25.6011295,17.9407005z M22.1366024,30.8723335  c0-0.6203156,0.502182-1.1249008,1.1237373-1.1249008h5.1920795c0.6214981,0,1.1248627,0.5045853,1.1248627,1.1249008  c0,0.6203728-0.5033646,1.1237354-1.1248627,1.1237354h-5.1920795  C22.6387844,31.996069,22.1366024,31.4927063,22.1366024,30.8723335L22.1366024,30.8723335z M67.5463028,29.7474327h5.1944046  c0.6191711,0,1.1237183,0.5045853,1.1237183,1.1249008c0,0.6203728-0.5045471,1.1237354-1.1237183,1.1237354h-5.1944046  c-0.6191711,0-1.1236572-0.5033627-1.1236572-1.1237354C66.4226456,30.252018,66.9271317,29.7474327,67.5463028,29.7474327  L67.5463028,29.7474327z M63.9553261,21.6604385c-0.3119049-0.5376415-0.1275597-1.2253895,0.4112663-1.5348892l4.4960556-2.596077  c0.5376358-0.3107395,1.2253265-0.1275959,1.5348892,0.4112282c0.3119354,0.5376434,0.1276093,1.2253342-0.4111557,1.5348911  l-4.496109,2.5960579C64.9589615,22.3801384,64.2656479,22.2028313,63.9553261,21.6604385L63.9553261,21.6604385z   M56.8006439,13.3820238l2.5960045-4.4960909c0.3096123-0.5388441,0.997303-0.7243156,1.5349464-0.4112291  c0.5388412,0.3096142,0.723114,0.997304,0.4112282,1.5349464l-2.5960579,4.4960527  c-0.3136787,0.5427742-1.0020752,0.7198706-1.5349083,0.4112291C56.6730309,14.6072989,56.4887047,13.9196663,56.8006439,13.3820238  L56.8006439,13.3820238z M58.4502182,65.7277985l-8.3411179-12.4117508h25.0184708l8.5324783,12.4117508H58.4502182  L58.4502182,65.7277985z M74.5934906,84.7200165V67.9776382H57.8511124c-0.3745651,0-0.7254982-0.187912-0.9334564-0.4986725  l-7.7928314-11.5975723v29.5476151h24.760849C74.2697601,85.4290085,74.5934906,85.103981,74.5934906,84.7200165  L74.5934906,84.7200165z M22.1141701,85.4290085c-0.3840275,0-0.7089405-0.3250275-0.7089405-0.708992V67.9776382h16.7447071  c0.3745651,0,0.723114-0.187912,0.9335136-0.4986725l7.7927742-11.5975723v29.5476151H22.1141701L22.1141701,85.4290085z   M20.8722992,53.3160477l-8.5336838,12.4117508h25.2098694l8.3410797-12.4117508H20.8722992L20.8722992,53.3160477z   M86.7251968,66.2157822l-10.080368-14.6615067c-0.2103424-0.3060493-0.5554352-0.4868851-0.9264145-0.4868851H20.2802544  c-0.3686543,0-0.7160187,0.1808357-0.926363,0.4868851L9.275856,66.2157822  c-0.5118523,0.7416,0.0239019,1.7618561,0.9251795,1.7618561h8.9555387v16.7423782  c0,1.6305847,1.3269482,2.9575729,2.9575958,2.9575729h51.7715034c1.6306686,0,2.9564209-1.3269882,2.9564209-2.9575729V67.9776382  h8.9566803C86.6983185,67.9776382,87.2357483,66.9560852,86.7251968,66.2157822z" />
	<text x="0" y="111" fill="#000000" font-size="5px" font-weight="bold" font-family="'Montserrat', Sans-serif">Created
		by gravisio</text>
	<text x="0" y="116" fill="#000000" font-size="5px" font-weight="bold" font-family="'Montserrat', Sans-serif">from
		the Noun Project</text>
</svg>